<svg xmlns="http://www.w3.org/2000/svg" width="50" height="37" viewBox="0 0 49.999997 37.000001"><g fill="#fff"><path d="M10.421 1019.282l.74.674c.151.137.263.266.43.386l-.069.066c-.172-.129-.283-.253-.442-.396l-.752-.686.094-.044z" stroke="#fff" stroke-width=".616" stroke-linecap="round" stroke-linejoin="round" transform="translate(0 -1015.362)"/><path d="M17.801 1016.472l.407.913c.084.185.134.349.239.525l-.09.033c-.106-.187-.158-.344-.246-.539l-.414-.929h.104z" stroke="#fff" stroke-width=".616" stroke-linecap="round" stroke-linejoin="round" transform="translate(0 -1015.362)"/><path d="M25.039 1015.713l-.006.999c0 .203-.022.373 0 .577l-.096-.01c-.02-.214-.001-.379-.001-.592l.007-1.017.096.04z" stroke="#fff" stroke-width=".616" stroke-linecap="round" stroke-linejoin="round" transform="translate(0 -1015.362)"/><path d="M31.561 1017.867l.414-.91c.084-.186.173-.332.235-.527l.085.045c-.069.203-.153.347-.241.542l-.422.926-.071-.075z" stroke="#fff" stroke-width=".616" stroke-linecap="round" stroke-linejoin="round" transform="translate(0 -1015.362)"/><path d="M38.506 1020.299l.73-.685c.148-.14.286-.241.419-.398l.061.073c-.142.162-.274.262-.429.41l-.743.696-.037-.096z" stroke="#fff" stroke-width=".616" stroke-linecap="round" stroke-linejoin="round" transform="translate(0 -1015.362)"/><path d="M45 1025.48l.923-.389c.188-.08.353-.127.531-.228l.032.09c-.189.103-.348.151-.545.235l-.94.396-.001-.103z" stroke="#fff" stroke-width=".616" stroke-linecap="round" stroke-linejoin="round" transform="translate(0 -1015.362)"/><path d="M48.112 1033.784l1.002.03c.204 0 .374.031.578.014l-.009.095c-.215.015-.38-.01-.594-.013l-1.019-.031.042-.094z" stroke="#fff" stroke-width=".616" stroke-linecap="round" stroke-linejoin="round" transform="translate(0 -1015.362)"/><path d="M45.07 1042.062l.921.395c.188.08.336.166.533.224l-.043.085c-.205-.065-.351-.146-.548-.23l-.937-.402.074-.072z" stroke="#fff" stroke-width=".616" stroke-linecap="round" stroke-linejoin="round" transform="translate(0 -1015.362)"/><path d="M38.571 1047.257l.706.709c.144.144.25.279.41.406l-.072.063c-.166-.137-.271-.266-.422-.417l-.718-.722.096-.04z" stroke="#fff" stroke-width=".616" stroke-linecap="round" stroke-linejoin="round" transform="translate(0 -1015.362)"/><path d="M31.754 1049.755l.371.928c.076.189.12.354.218.534l-.091.03c-.099-.191-.144-.35-.224-.549l-.377-.945.104.001z" stroke="#fff" stroke-width=".616" stroke-linecap="round" stroke-linejoin="round" transform="translate(0 -1015.362)"/><path d="M25.099 1050.479l-.03.999c-.005.203-.031.372-.014.576l-.095-.01c-.015-.214.007-.379.013-.592l.032-1.016.095.042z" stroke="#fff" stroke-width=".616" stroke-linecap="round" stroke-linejoin="round" transform="translate(0 -1015.362)"/><path d="M17.78 1051.2l.376-.926c.076-.189.159-.339.213-.536l.086.041c-.061.206-.139.352-.218.551l-.383.942-.074-.072z" stroke="#fff" stroke-width=".616" stroke-linecap="round" stroke-linejoin="round" transform="translate(0 -1015.362)"/><path d="M10.407 1048.378l.73-.685c.148-.14.286-.241.419-.398l.061.074c-.142.162-.274.262-.429.41l-.743.696-.037-.096z" stroke="#fff" stroke-width=".616" stroke-linecap="round" stroke-linejoin="round" transform="translate(0 -1015.362)"/><path d="M3.527 1042.713l.922-.392c.187-.081.352-.128.531-.23l.032.09c-.189.103-.348.152-.545.237l-.938.398-.001-.103z" stroke="#fff" stroke-width=".616" stroke-linecap="round" stroke-linejoin="round" transform="translate(0 -1015.362)"/><path d="M.35 1033.796l1.002.03c.204 0 .374.031.578.014l-.009.095c-.215.015-.38-.01-.594-.013l-1.019-.031.042-.094z" stroke="#fff" stroke-width=".616" stroke-linecap="round" stroke-linejoin="round" transform="translate(0 -1015.362)"/><path d="M3.563 1024.941l.931.37c.19.075.34.157.539.21l-.041.086c-.207-.06-.354-.137-.554-.215l-.947-.378.072-.074z" stroke="#fff" stroke-width=".616" stroke-linecap="round" stroke-linejoin="round" transform="translate(0 -1015.362)"/><path d="M11.277 28.476c-1.406-.351-2.48-1.95-3.114-4.639-.507-2.147-.794-4.715-.793-7.085.001-2.01.113-2.875.481-3.727.311-.719.835-1.202 1.303-1.202.288 0 .61.343.732.781.356 1.269.269 5.33-.204 9.502-.075.66-.071.854.03 1.376.454 2.355 1.244 3.966 2.141 4.363.455.202 1.071.074 1.452-.302.324-.32.659-1.226.661-1.787.001-.26-.023-.276-.54-.368-.752-.133-1.784-.912-2.27-1.715-.459-.757-.694-1.874-.57-2.71.28-1.889 2.123-2.334 3.464-.835.761.85 1.2 2.066 1.268 3.518l.041.856.214-.117c.356-.195.849-.775 1.045-1.23l.185-.429-.084-1.268c-.046-.697-.083-1.604-.083-2.016.001-.686.015-.764.173-.93.094-.1.344-.236.554-.302.766-.241.754-.269.856 1.981.132 2.893.312 4.213.679 4.979.246.513.416.653.845.697.355.036.373.028.674-.305.39-.431.661-1.135.822-2.134.121-.748.119-.794-.08-3.097l-.202-2.337.2-.221c.11-.122.373-.279.584-.349.334-.112.398-.114.486-.018.071.078.188.98.394 3.055.443 4.456.584 5.045 1.161 4.85.443-.149 1.527-3.302 1.617-4.704.124-1.929.941-3.524 2.12-4.139.409-.213.552-.248 1.022-.248.838 0 1.291.312 1.517 1.049.119.387.041.811-.228 1.24-.212.339-.651.726-.824.726-.145 0-.179-.241-.095-.672.119-.607.034-1.06-.256-1.368-.541-.572-1.395-.109-1.773.962-.565 1.599-.148 4.245.84 5.321.464.505.836.681 1.438.681.634 0 .956-.167 1.472-.766.419-.486 1.023-1.722 1.347-2.756l.195-.623-.189-1.058c-.512-2.872-.654-4.307-.654-6.599 0-2.073.059-2.603.393-3.545.247-.696.808-1.27 1.239-1.27.316.001.612.268.733.662.385 1.253.344 4.904-.103 9.059l-.146 1.353.29 1.265c.546 2.383.861 3.098 1.365 3.098.293 0 .737-.77 1.17-2.025.217-.631.241-.789.286-1.911.077-1.913.415-2.917 1.305-3.878 1.438-1.55 3.385-1.283 3.385.464 0 .913-.66 1.922-2.237 3.423-1.042.991-.999.886-.662 1.623.436.954 1.142 1.491 1.961 1.491.568 0 .952-.186 1.395-.676.536-.593 1.113-1.785 1.498-3.097l.183-.598c.026-.045.461.218.461.279 0 .231-.585 1.829-.972 2.655-.965 2.059-2.071 2.971-3.443 2.839-.458-.044-1.107-.328-1.456-.637-.329-.292-.763-.92-.963-1.395-.095-.226-.187-.397-.203-.379-.016.017-.132.34-.257.716-.471 1.419-1.015 2.34-1.509 2.557-.367.161-.969.065-1.282-.203-.367-.315-.762-1.112-1.088-2.196l-.274-.91-.132.375c-.282.8-.869 1.979-1.275 2.558-.766 1.095-1.588 1.569-2.617 1.51-1.214-.069-2.222-1.009-2.708-2.523l-.127-.395-.346 1.141c-.645 2.13-1.121 2.784-2.026 2.784-.647 0-1.098-.444-1.339-1.319l-.189-.668c-.021-.066-.106.079-.201.344-.582 1.624-1.269 2.33-2.267 2.33-.75 0-1.296-.425-1.696-1.32-.206-.461-.478-1.554-.48-1.928l-.001-.229-.198.267c-.321.434-.749.821-1.143 1.032-.35.188-.374.221-.492.671-.265 1.008-.895 1.952-1.594 2.389-.584.364-1.586.511-2.293.334zm2.69-4.034c0-.908-.355-2.335-.8-3.221-.423-.841-1.057-1.25-1.48-.956-.316.219-.488.747-.436 1.339.132 1.5.976 2.692 2.184 3.085.528.172.532.17.532-.247zm-4.505-6.926c.064-3.065-.054-4.491-.38-4.604-.19-.065-.268.334-.297 1.508-.037 1.514.242 5.203.471 6.229.089.397.152-.57.206-3.133zm29.199 1.127c.701-.771 1.095-1.413 1.248-2.036.169-.686.005-1.257-.423-1.473-.339-.171-.683-.085-1.013.255-.523.538-.731 1.394-.669 2.763.039.877.087 1.16.195 1.16.03 0 .328-.301.662-.669zm-5.349-4.485c.112-2.447.007-4.947-.227-5.41-.075-.148-.245-.18-.315-.061-.024.041-.078.394-.12.783-.111 1.037.081 4.119.421 6.746l.049.382.052-.262c.029-.144.092-1.124.14-2.178z"/></g></svg>